<svg xmlns="http://www.w3.org/2000/svg" version="1.1" xmlns:xlink="http://www.w3.org/1999/xlink" xmlns:svgjs="http://svgjs.dev/svgjs" width="128" height="128" viewBox="0 0 128 128"><g transform="matrix(0.8046875,0,0,0.8046875,12.760752631578946,18.59979019549128)"><svg viewBox="0 0 95 84" data-background-color="#ffffff" preserveAspectRatio="xMidYMid meet" height="113" width="128" xmlns="http://www.w3.org/2000/svg" xmlns:xlink="http://www.w3.org/1999/xlink"><g id="tight-bounds" transform="matrix(1,0,0,1,-0.24049999999999727,-0.05970823798627123)"><svg viewBox="0 0 95.481 84.11941647597253" height="84.11941647597253" width="95.481"><g><svg viewBox="0 0 95.481 84.11941647597253" height="84.11941647597253" width="95.481"><g><svg viewBox="0 0 95.481 84.11941647597253" height="84.11941647597253" width="95.481"><g id="textblocktransform"><svg viewBox="0 0 95.481 84.11941647597253" height="84.11941647597253" width="95.481" id="textblock"><g><svg viewBox="0 0 95.481 84.11941647597253" height="84.11941647597253" width="95.481"><g><svg viewBox="0 0 95.481 84.11941647597253" height="84.11941647597253" width="95.481"><g><svg xmlns="http://www.w3.org/2000/svg" xml:space="preserve" viewBox="6.3 11.5 87.4 77" x="0" y="0" height="84.11941647597253" width="95.481" class="icon-icon-0" data-fill-palette-color="accent" id="icon-0"><path d="M72.3 12.3l-0.4-0.8H28.2L6.3 50l21.8 38.5h43.7L93.7 50z m-39 13L9.9 47.7l18.6-32.8z m37.4-10.5l6.4 35.7-40.2-24.7zM35.5 27.3l41 25.2-41 23.3zM77 54.5l-7.2 30.8-32.6-8.1zM33.5 75L9.9 50.5l23.6-22.7z m-0.3 2.6l-4.6 7.7-17.1-30.2z m1.8 1l31.4 7.9H30.2z m44.3-25.3l11.6-2.5L72.1 84z m11.4-4.4l-11.4 2.5-5.9-33.1zM35 24.3l-5-10.8h38.2z" fill="#67595e" data-fill-palette-color="accent"></path></svg></g></svg></g></svg></g></svg></g></svg></g><g></g></svg></g><defs></defs></svg><rect width="95.481" height="84.11941647597253" fill="none" stroke="none" visibility="hidden"></rect></g></svg></g></svg>